<svg width="30" height="30" viewBox="0 0 30 30" fill="none" xmlns="http://www.w3.org/2000/svg">
<g id="Group 915">
<path id="Vector" d="M15 0C23.28 0 30 6.72 30 15C30 23.28 23.28 30 15 30C6.72 30 0 23.28 0 15C0 6.72 6.72 0 15 0ZM9.75 16.125H17.535L14.955 18.705C14.52 19.14 14.52 19.86 14.955 20.295C15.18 20.52 15.465 20.625 15.75 20.625C16.035 20.625 16.32 20.52 16.545 20.295L21.045 15.795C21.48 15.36 21.48 14.64 21.045 14.205L16.545 9.705C16.11 9.27 15.39 9.27 14.955 9.705C14.52 10.14 14.52 10.86 14.955 11.295L17.535 13.875H9.75C9.135 13.875 8.625 14.385 8.625 15C8.625 15.615 9.135 16.125 9.75 16.125Z" fill="#0070FF"/>
</g>
</svg>
