<svg width="42" height="41" viewBox="0 0 42 41" fill="none" xmlns="http://www.w3.org/2000/svg">
<path d="M12.9998 13.3624H14.4508C15.3515 13.3624 16.0603 14.138 15.9853 15.0303L15.2931 23.3364C15.1764 24.6957 16.2521 25.8633 17.6198 25.8633H26.5013C27.7022 25.8633 28.753 24.8792 28.8447 23.6867L29.295 17.4321C29.3951 16.0477 28.3444 14.9219 26.9517 14.9219H16.1854" stroke="#845DC2" stroke-width="1.01887" stroke-miterlimit="10" stroke-linecap="round" stroke-linejoin="round"/>
<path d="M24.8835 30.0413C25.4592 30.0413 25.9259 29.5746 25.9259 28.9989C25.9259 28.4232 25.4592 27.9565 24.8835 27.9565C24.3078 27.9565 23.8411 28.4232 23.8411 28.9989C23.8411 29.5746 24.3078 30.0413 24.8835 30.0413Z" stroke="#845DC2" stroke-width="1.01887" stroke-miterlimit="10" stroke-linecap="round" stroke-linejoin="round"/>
<path d="M18.2119 30.0413C18.7876 30.0413 19.2543 29.5746 19.2543 28.9989C19.2543 28.4232 18.7876 27.9565 18.2119 27.9565C17.6361 27.9565 17.1694 28.4232 17.1694 28.9989C17.1694 29.5746 17.6361 30.0413 18.2119 30.0413Z" stroke="#845DC2" stroke-width="1.01887" stroke-miterlimit="10" stroke-linecap="round" stroke-linejoin="round"/>
<path d="M18.8374 18.3661H28.8448" stroke="#845DC2" stroke-width="1.01887" stroke-miterlimit="10" stroke-linecap="round" stroke-linejoin="round"/>
<rect x="1.28287" y="0.626621" width="39.7358" height="39.7358" rx="19.8679" stroke="#845DC2" stroke-width="1.01887"/>
</svg>
