<svg width="14" height="14" viewBox="0 0 14 14" fill="none" xmlns="http://www.w3.org/2000/svg">
<path d="M8.8 1V7C8.8 7.66 8.26 8.2 7.6 8.2H1V3.4C1 2.074 2.074 1 3.4 1H8.8Z" stroke="#292D32" stroke-linecap="round" stroke-linejoin="round"/>
<path d="M13 8.20005V10C13 10.996 12.196 11.8 11.2 11.8H10.6C10.6 11.14 10.06 10.6 9.4 10.6C8.74 10.6 8.2 11.14 8.2 11.8H5.8C5.8 11.14 5.26 10.6 4.6 10.6C3.94 10.6 3.4 11.14 3.4 11.8H2.8C1.804 11.8 1 10.996 1 10V8.20005H7.6C8.26 8.20005 8.8 7.66005 8.8 7.00005V2.80005H9.904C10.336 2.80005 10.732 3.03405 10.948 3.40605L11.974 5.20005H11.2C10.87 5.20005 10.6 5.47005 10.6 5.80005V7.60005C10.6 7.93005 10.87 8.20005 11.2 8.20005H13Z" stroke="#292D32" stroke-linecap="round" stroke-linejoin="round"/>
<path d="M4.60027 13.0001C5.26301 13.0001 5.80027 12.4628 5.80027 11.8001C5.80027 11.1373 5.26301 10.6001 4.60027 10.6001C3.93753 10.6001 3.40027 11.1373 3.40027 11.8001C3.40027 12.4628 3.93753 13.0001 4.60027 13.0001Z" stroke="#292D32" stroke-linecap="round" stroke-linejoin="round"/>
<path d="M9.4002 13.0001C10.0629 13.0001 10.6002 12.4628 10.6002 11.8001C10.6002 11.1373 10.0629 10.6001 9.4002 10.6001C8.73745 10.6001 8.2002 11.1373 8.2002 11.8001C8.2002 12.4628 8.73745 13.0001 9.4002 13.0001Z" stroke="#292D32" stroke-linecap="round" stroke-linejoin="round"/>
<path d="M12.9997 6.99995V8.19995H11.1997C10.8697 8.19995 10.5997 7.92995 10.5997 7.59995V5.79995C10.5997 5.46995 10.8697 5.19995 11.1997 5.19995H11.9737L12.9997 6.99995Z" stroke="#292D32" stroke-linecap="round" stroke-linejoin="round"/>
</svg>
