<svg width="15" height="19" viewBox="0 0 15 19" fill="none" xmlns="http://www.w3.org/2000/svg">
<g id="Group 887">
<g id="Group">
<path id="Vector" d="M1.50922 6.13243H5.4142C6.04712 6.13243 5.77201 5.28806 5.77201 5.28806L4.39276 0.658929C4.26033 0.215001 3.84226 0.421618 3.62769 0.56372C2.13362 1.67809 1.10054 3.36086 0.864361 5.28692C0.862656 5.30454 0.775689 6.13243 1.50922 6.13243Z" fill="#8A68C5"/>
<path id="Vector_2" d="M14.1614 8.12093C14.158 7.30043 13.3656 7.22682 13.1394 7.22284H1.51141C0.866269 7.22284 0.84268 7.73071 0.855753 7.92028C1.21755 11.152 4.06414 13.67 7.52434 13.67C10.9118 13.67 13.7058 11.2549 14.1614 8.12093Z" fill="#8A68C5"/>
<path id="Vector_3" d="M2.93308 18.5995C4.1037 18.5995 5.05268 17.6505 5.05268 16.4799C5.05268 15.3093 4.1037 14.3603 2.93308 14.3603C1.76245 14.3603 0.813477 15.3093 0.813477 16.4799C0.813477 17.6505 1.76245 18.5995 2.93308 18.5995Z" fill="#8A68C5"/>
<path id="Vector_4" d="M12.0405 18.5995C13.2111 18.5995 14.1601 17.6505 14.1601 16.4799C14.1601 15.3093 13.2111 14.3603 12.0405 14.3603C10.8699 14.3603 9.9209 15.3093 9.9209 16.4799C9.9209 17.6505 10.8699 18.5995 12.0405 18.5995Z" fill="#8A68C5"/>
</g>
</g>
</svg>
