<svg width="13" height="13" viewBox="0 0 13 13" fill="none" xmlns="http://www.w3.org/2000/svg">
<g id="Group 187">
<g id="Group 186">
<path id="Vector" d="M7.33164 9.71592L5.68164 8.06592" stroke="#EC1515" stroke-miterlimit="10" stroke-linecap="round" stroke-linejoin="round"/>
<path id="Vector_2" d="M7.31602 8.08392L5.66602 9.73392" stroke="#EC1515" stroke-miterlimit="10" stroke-linecap="round" stroke-linejoin="round"/>
<path id="Vector_3" d="M4.58411 0.5L2.41211 2.678" stroke="#EC1515" stroke-miterlimit="10" stroke-linecap="round" stroke-linejoin="round"/>
<path id="Vector_4" d="M8.41211 0.5L10.5841 2.678" stroke="#EC1515" stroke-miterlimit="10" stroke-linecap="round" stroke-linejoin="round"/>
<path id="Vector_5" d="M0.5 4.01006C0.5 2.90006 1.094 2.81006 1.832 2.81006H11.168C11.906 2.81006 12.5 2.90006 12.5 4.01006C12.5 5.30006 11.906 5.21006 11.168 5.21006H1.832C1.094 5.21006 0.5 5.30006 0.5 4.01006Z" stroke="#EC1515"/>
<path id="Vector_6" d="M1.40039 5.29999L2.24639 10.484C2.43839 11.648 2.90039 12.5 4.61639 12.5H8.23439C10.1004 12.5 10.3764 11.684 10.5924 10.556L11.6004 5.29999" stroke="#EC1515" stroke-linecap="round"/>
</g>
</g>
</svg>
