<svg width="12" height="13" viewBox="0 0 12 13" fill="none" xmlns="http://www.w3.org/2000/svg">
<g id="Group 770">
<path id="Vector" d="M5.38862 1.13643H4.30226C1.58636 1.13643 0.5 2.22279 0.5 4.93869V8.19777C0.5 10.9137 1.58636 12 4.30226 12H7.56134C10.2772 12 11.3636 10.9137 11.3636 8.19777V7.11141" stroke="#292D32" stroke-linecap="round" stroke-linejoin="round"/>
<path id="Vector_2" d="M8.12644 1.69048L3.84618 5.97074C3.68322 6.13369 3.52027 6.45417 3.48768 6.68773L3.25411 8.32271C3.1672 8.91477 3.58545 9.32759 4.17752 9.24611L5.81249 9.01254C6.04062 8.97995 6.3611 8.817 6.52949 8.65405L10.8097 4.37379C11.5485 3.63506 11.8961 2.77684 10.8097 1.69048C9.72339 0.604116 8.86516 0.951751 8.12644 1.69048Z" stroke="#292D32" stroke-miterlimit="10" stroke-linecap="round" stroke-linejoin="round"/>
<path id="Vector_3" d="M7.5127 2.3042C7.87663 3.6024 8.89237 4.61815 10.196 4.98751" stroke="#292D32" stroke-miterlimit="10" stroke-linecap="round" stroke-linejoin="round"/>
</g>
</svg>
