<svg width="13" height="14" viewBox="0 0 13 14" fill="none" xmlns="http://www.w3.org/2000/svg">
<g id="Group 918">
<path id="Vector" d="M2.18706 8.21054C2.1011 9.21131 2.89311 10.0709 3.90002 10.0709H10.4388C11.3229 10.0709 12.0965 9.34639 12.164 8.46842L12.4955 3.86367C12.5692 2.84449 11.7956 2.01562 10.7703 2.01562H2.844" stroke="white" stroke-miterlimit="10" stroke-linecap="round" stroke-linejoin="round"/>
<path id="Vector_2" d="M0.499512 0.861328H1.56782C2.2309 0.861328 2.75277 1.43232 2.69751 2.08926L2.39053 5.80375" stroke="white" stroke-miterlimit="10" stroke-linecap="round" stroke-linejoin="round"/>
<path id="Vector_3" d="M9.24793 13.1414C9.67178 13.1414 10.0154 12.7978 10.0154 12.3739C10.0154 11.95 9.67178 11.6064 9.24793 11.6064C8.82407 11.6064 8.48047 11.95 8.48047 12.3739C8.48047 12.7978 8.82407 13.1414 9.24793 13.1414Z" stroke="white" stroke-miterlimit="10" stroke-linecap="round" stroke-linejoin="round"/>
<path id="Vector_4" d="M4.33484 13.1414C4.7587 13.1414 5.1023 12.7978 5.1023 12.3739C5.1023 11.95 4.7587 11.6064 4.33484 11.6064C3.91099 11.6064 3.56738 11.95 3.56738 12.3739C3.56738 12.7978 3.91099 13.1414 4.33484 13.1414Z" stroke="white" stroke-miterlimit="10" stroke-linecap="round" stroke-linejoin="round"/>
<path id="Vector_5" d="M4.80127 4.54492H12.1689" stroke="white" stroke-miterlimit="10" stroke-linecap="round" stroke-linejoin="round"/>
</g>
</svg>
