<svg width="19" height="19" viewBox="0 0 19 19" fill="none" xmlns="http://www.w3.org/2000/svg">
<path d="M1.28418 1H2.75408C3.66643 1 4.38448 1.78563 4.30845 2.68954L3.60729 11.1034C3.48902 12.4804 4.57877 13.6631 5.96419 13.6631H14.961C16.1774 13.6631 17.2418 12.6662 17.3348 11.4582L17.7909 5.12247C17.8923 3.72016 16.8279 2.57971 15.4171 2.57971H4.5112" stroke="#292D32" stroke-width="1.12636" stroke-miterlimit="10" stroke-linecap="round" stroke-linejoin="round"/>
<path d="M13.3226 17.8953C13.9058 17.8953 14.3785 17.4226 14.3785 16.8394C14.3785 16.2562 13.9058 15.7834 13.3226 15.7834C12.7394 15.7834 12.2666 16.2562 12.2666 16.8394C12.2666 17.4226 12.7394 17.8953 13.3226 17.8953Z" stroke="#292D32" stroke-width="1.12636" stroke-miterlimit="10" stroke-linecap="round" stroke-linejoin="round"/>
<path d="M6.56402 17.8953C7.14721 17.8953 7.61997 17.4226 7.61997 16.8394C7.61997 16.2562 7.14721 15.7834 6.56402 15.7834C5.98083 15.7834 5.50806 16.2562 5.50806 16.8394C5.50806 17.4226 5.98083 17.8953 6.56402 17.8953Z" stroke="#292D32" stroke-width="1.12636" stroke-miterlimit="10" stroke-linecap="round" stroke-linejoin="round"/>
<path d="M7.19702 6.06866H17.3342" stroke="#292D32" stroke-width="1.12636" stroke-miterlimit="10" stroke-linecap="round" stroke-linejoin="round"/>
</svg>
