<svg width="15" height="19" viewBox="0 0 15 19" fill="none" xmlns="http://www.w3.org/2000/svg">
<path d="M7.48079 1.81854C4.68833 1.81854 2.41893 4.08794 2.41893 6.88039V9.31852C2.41893 9.83314 2.19959 10.6177 1.93806 11.0564L0.96787 12.6678C0.368885 13.6633 0.782269 14.7684 1.879 15.1396C5.5151 16.3545 9.43804 16.3545 13.0741 15.1396C14.0949 14.8022 14.5421 13.5958 13.9853 12.6678L13.0151 11.0564C12.762 10.6177 12.5426 9.83314 12.5426 9.31852V6.88039C12.5426 4.09638 10.2648 1.81854 7.48079 1.81854Z" stroke="#292D32" stroke-width="1.12636" stroke-miterlimit="10" stroke-linecap="round"/>
<path d="M9.04213 2.06299C8.7806 1.98706 8.51064 1.92801 8.23223 1.89426C7.42234 1.79302 6.64619 1.85208 5.92065 2.06299C6.16531 1.43869 6.77273 1 7.48139 1C8.19005 1 8.79747 1.43869 9.04213 2.06299Z" stroke="#292D32" stroke-width="1.12636" stroke-miterlimit="10" stroke-linecap="round" stroke-linejoin="round"/>
<path d="M10.0118 15.4433C10.0118 16.8353 8.87289 17.9742 7.48088 17.9742C6.78909 17.9742 6.14792 17.6874 5.69236 17.2318C5.23679 16.7763 4.94995 16.1351 4.94995 15.4433" stroke="#292D32" stroke-width="1.12636" stroke-miterlimit="10"/>
</svg>
