<svg width="15" height="15" viewBox="0 0 15 15" fill="none" xmlns="http://www.w3.org/2000/svg">
<path id="Vector" d="M9.2197 10.0557C9.21057 9.95623 9.20389 9.79642 9.19862 9.63071C10.7248 9.47645 11.7953 9.11522 11.7953 8.69437C11.7911 8.69368 11.7915 8.67704 11.7915 8.67011C10.6507 7.65542 12.7806 0.444476 8.81542 0.590768C8.56639 0.38277 8.1305 0.197998 7.5053 0.197998C2.13449 0.599088 4.50922 7.4086 3.2855 8.69403C3.2848 8.69437 3.28375 8.69437 3.28304 8.69437C3.28304 8.69507 3.28339 8.69576 3.28339 8.69645L3.28304 8.69715L3.28375 8.69749C3.28866 9.10968 4.32306 9.46431 5.80495 9.62239C5.80073 9.72292 5.79195 9.84737 5.77263 10.0557C5.15726 11.6885 1.00525 11.2302 0.813477 14.3793H14.1606C13.9692 11.2302 9.83507 11.6885 9.2197 10.0557Z" fill="#FF6D91"/>
</svg>
