<svg width="9" height="10" viewBox="0 0 9 10" fill="none" xmlns="http://www.w3.org/2000/svg">
<path d="M5.73976 1.60309L6.09391 2.32463C6.27099 2.67907 6.71368 3.00819 7.10577 3.08414L7.58641 3.16009C9.02831 3.4006 9.36981 4.46392 8.33266 5.51458L7.88997 5.95763C7.59906 6.26143 7.43463 6.84373 7.52317 7.2488L7.58641 7.51463C7.97851 9.26151 7.05518 9.93241 5.53739 9.021L5.20853 8.83112C4.81644 8.60326 4.18402 8.60326 3.79193 8.83112L3.46307 9.021C1.93263 9.94507 1.00931 9.26151 1.41405 7.51463L1.47729 7.2488C1.56583 6.84373 1.4014 6.26143 1.11049 5.95763L0.667803 5.50192C-0.369355 4.45126 -0.027853 3.38794 1.41405 3.14743L1.89469 3.07148C2.27413 3.00819 2.72947 2.66641 2.90655 2.31197L3.2607 1.59043C3.94371 0.223308 5.05675 0.223308 5.73976 1.60309Z" fill="#F8931B"/>
</svg>
