<svg width="18" height="18" viewBox="0 0 18 18" fill="none" xmlns="http://www.w3.org/2000/svg">
<path d="M9 15C12.3137 15 15 12.3137 15 9C15 5.68629 12.3137 3 9 3C5.68629 3 3 5.68629 3 9C3 12.3137 5.68629 15 9 15Z" stroke="#F3F3F3" stroke-width="1.5" stroke-linecap="round" stroke-linejoin="round"/>
<path d="M9.0001 11.4C10.3256 11.4 11.4001 10.3255 11.4001 9.00001C11.4001 7.67452 10.3256 6.60001 9.0001 6.60001C7.67461 6.60001 6.6001 7.67452 6.6001 9.00001C6.6001 10.3255 7.67461 11.4 9.0001 11.4Z" stroke="#F3F3F3" stroke-width="1.5" stroke-linecap="round" stroke-linejoin="round"/>
<path d="M9 2.6V1" stroke="#F3F3F3" stroke-width="1.5" stroke-linecap="round" stroke-linejoin="round"/>
<path d="M2.6 9H1" stroke="#F3F3F3" stroke-width="1.5" stroke-linecap="round" stroke-linejoin="round"/>
<path d="M9 15.4V17" stroke="#F3F3F3" stroke-width="1.5" stroke-linecap="round" stroke-linejoin="round"/>
<path d="M15.3999 9H16.9999" stroke="#F3F3F3" stroke-width="1.5" stroke-linecap="round" stroke-linejoin="round"/>
</svg>
