<svg width="12" height="14" viewBox="0 0 12 14" fill="none" xmlns="http://www.w3.org/2000/svg">
<path d="M11.3983 10.9989L10.8129 10.3622C11.1181 9.86102 11.2987 9.25822 11.2987 8.60801C11.2987 6.84702 9.98451 5.41791 8.36516 5.41791C6.74581 5.41791 5.43164 6.84702 5.43164 8.60801C5.43164 10.369 6.74581 11.7981 8.36516 11.7981C8.96307 11.7981 9.51116 11.6017 9.97828 11.2698L10.5637 11.9065C10.6821 12.0352 10.8316 12.0961 10.9873 12.0961C11.143 12.0961 11.2924 12.0352 11.4108 11.9065C11.6288 11.6626 11.6288 11.2563 11.3983 10.9989Z" fill="#292D32"/>
<path d="M10.6877 1.36815V2.87177C10.6877 3.42038 10.3763 4.10446 10.0649 4.44989L9.95278 4.55825C9.86559 4.6463 9.73479 4.66662 9.62268 4.62598C9.49812 4.57857 9.37355 4.54471 9.24899 4.51084C8.97494 4.43634 8.68221 4.40247 8.38326 4.40247C6.2345 4.40247 4.49059 6.29892 4.49059 8.63562C4.49059 9.40775 4.68366 10.1663 5.05113 10.8165C5.36254 11.3855 5.79852 11.8596 6.27187 12.1779C6.41512 12.2795 6.47118 12.4963 6.34661 12.6182C6.30301 12.6588 6.25942 12.6927 6.21582 12.7265L5.34386 13.3429C4.53418 13.8915 3.41932 13.2752 3.41932 12.1779V8.55435C3.41932 8.07346 3.17019 7.45711 2.92106 7.11846L0.560545 4.38216C0.249131 4.03673 0 3.42038 0 3.014V1.43588C0 0.616346 0.560545 0 1.23943 0H9.44829C10.1272 0 10.6877 0.616346 10.6877 1.36815Z" fill="#292D32"/>
</svg>
