<svg width="12" height="12" viewBox="0 0 12 12" fill="#F3F3F3" xmlns="http://www.w3.org/2000/svg">
<path d="M7.33019 2.19831L7.74934 3.05227C7.95892 3.47176 8.48285 3.86128 8.94691 3.95117L9.51575 4.04107C11.2223 4.32572 11.6265 5.58418 10.399 6.82766L9.87502 7.35202C9.53072 7.71159 9.33611 8.40074 9.4409 8.88016L9.51575 9.19477C9.97981 11.2622 8.88703 12.0563 7.09068 10.9776L6.70147 10.7529C6.23741 10.4832 5.48894 10.4832 5.02488 10.7529L4.63567 10.9776C2.82436 12.0713 1.73158 11.2622 2.2106 9.19477L2.28545 8.88016C2.39024 8.40074 2.19564 7.71159 1.85134 7.35202L1.3274 6.81268C0.0998981 5.5692 0.504075 4.31074 2.2106 4.02608L2.77945 3.93619C3.22854 3.86128 3.76744 3.45678 3.97701 3.03729L4.39616 2.18333C5.20452 0.565307 6.52184 0.565307 7.33019 2.19831Z" />
</svg>
