<svg width="96" height="88" viewBox="0 0 96 88" fill="none" xmlns="http://www.w3.org/2000/svg">
<path id="Union" fill-rule="evenodd" clip-rule="evenodd" d="M47.5653 6.04067L10.7715 20.7581C10.7276 20.7756 10.5239 20.8955 10.3194 21.1989C10.114 21.5037 10.0801 21.7379 10.0801 21.7771V35.359C10.0801 35.9521 10.5778 36.4499 11.171 36.4499H84.8074C85.4005 36.4499 85.8983 35.9521 85.8983 35.359V21.7771C85.8983 21.7379 85.8644 21.5037 85.659 21.1989C85.4545 20.8955 85.2507 20.7756 85.2068 20.7581L48.4131 6.04067C48.4018 6.03781 48.3747 6.03145 48.3303 6.02441C48.2405 6.01019 48.1221 6 47.9892 6C47.8563 6 47.7379 6.01019 47.6481 6.02441C47.6037 6.03145 47.5766 6.03781 47.5653 6.04067ZM47.9892 0C48.7765 0 49.739 0.108829 50.617 0.460024L87.4352 15.1872L86.3447 17.9134L87.4352 15.1872C88.8231 15.7424 89.908 16.7679 90.6342 17.8452C91.3594 18.9211 91.8983 20.3028 91.8983 21.7771V35.359C91.8983 39.2658 88.7142 42.4499 84.8074 42.4499H83.7091V65.0865H84.8074C88.7142 65.0865 91.8983 68.2706 91.8983 72.1775V81.4518H93C94.6569 81.4518 96 82.7949 96 84.4518C96 86.1086 94.6569 87.4518 93 87.4518H3C1.34315 87.4518 0 86.1086 0 84.4518C0 82.7949 1.34315 81.4518 3 81.4518H4.08008V72.1775C4.08008 68.2706 7.26414 65.0865 11.171 65.0865H12.2909V42.4499H11.171C7.26413 42.4499 4.08008 39.2658 4.08008 35.359V21.7771C4.08008 20.3028 4.61894 18.9211 5.3442 17.8452C6.07039 16.7679 7.15528 15.7424 8.5432 15.1872L9.61361 17.8632L8.54321 15.1872L45.3614 0.460024C46.2394 0.108829 47.2019 0 47.9892 0ZM80.6102 71.0865C80.6278 71.0871 80.6456 71.0875 80.6633 71.0878C80.6786 71.088 80.6938 71.0882 80.7091 71.0882C80.7423 71.0882 80.7753 71.0876 80.8081 71.0865H84.8074C85.4005 71.0865 85.8983 71.5843 85.8983 72.1775V81.4502H10.0801V72.1775C10.0801 71.5843 10.5778 71.0865 11.171 71.0865H15.1919C15.2247 71.0876 15.2577 71.0882 15.2909 71.0882C15.3094 71.0882 15.3278 71.088 15.3462 71.0876C15.3608 71.0874 15.3753 71.087 15.3898 71.0865H31.5474C31.5803 71.0876 31.6133 71.0882 31.6464 71.0882C31.6795 71.0882 31.7125 71.0876 31.7454 71.0865H47.901C47.9339 71.0876 47.9669 71.0882 48 71.0882C48.0331 71.0882 48.0661 71.0876 48.099 71.0865H64.2546C64.2875 71.0876 64.3205 71.0882 64.3536 71.0882C64.3867 71.0882 64.4197 71.0876 64.4526 71.0865H80.6102ZM77.7091 65.0865V42.4499H67.3536V65.0865H77.7091ZM51 42.4499H61.3536V65.0865H51V42.4499ZM45 65.0865V42.4499H34.6464V65.0865H45ZM18.2909 42.4499H28.6464V65.0865H18.2909V42.4499ZM44.8536 23.0881C44.8536 21.356 46.2578 19.9518 47.9899 19.9518C49.7221 19.9518 51.1263 21.356 51.1263 23.0881C51.1263 24.8203 49.7221 26.2245 47.9899 26.2245C46.2578 26.2245 44.8536 24.8203 44.8536 23.0881ZM47.9899 13.9518C42.9441 13.9518 38.8536 18.0423 38.8536 23.0881C38.8536 28.134 42.9441 32.2245 47.9899 32.2245C53.0358 32.2245 57.1263 28.134 57.1263 23.0881C57.1263 18.0423 53.0358 13.9518 47.9899 13.9518Z" fill="#292D32" fill-opacity="0.5"/>
</svg>
