<svg width="12" height="12" viewBox="0 0 12 12" fill="none" xmlns="http://www.w3.org/2000/svg">
<path d="M7.67756 1.40268L8.15686 2.37919C8.39651 2.85889 8.99564 3.30431 9.5263 3.40711L10.1768 3.5099C12.1282 3.8354 12.5904 5.27448 11.1867 6.69642L10.5876 7.29604C10.1939 7.7072 9.97136 8.49527 10.0912 9.04349L10.1768 9.40326C10.7074 11.7675 9.45783 12.6754 7.40367 11.4419L6.9586 11.185C6.42795 10.8766 5.57205 10.8766 5.0414 11.185L4.59633 11.4419C2.52505 12.6926 1.27544 11.7675 1.82322 9.40326L1.90881 9.04349C2.02863 8.49527 1.8061 7.7072 1.41239 7.29604L0.813259 6.67929C-0.590413 5.25735 -0.12823 3.81827 1.82322 3.49277L2.4737 3.38997C2.98724 3.30431 3.60349 2.84175 3.84314 2.36206L4.32244 1.38555C5.24681 -0.464694 6.75319 -0.464694 7.67756 1.40268Z" fill="#F8931B"/>
</svg>
