<svg width="129" height="129" viewBox="0 0 129 129" fill="none" xmlns="http://www.w3.org/2000/svg">
<g id="Group 926">
<path id="Vector" d="M71.7001 120.4C67.7401 125.68 61.2599 125.68 57.2999 120.4L48.2999 108.4C47.2799 107.08 45.12 106 43.5 106H40.5C16.5 106 4.5 99.9998 4.5 69.9999V39.9999C4.5 16 16.5 4 40.5 4H88.5C112.5 4 124.5 16 124.5 39.9999V69.9999" stroke="#292D32" stroke-opacity="0.3" stroke-width="8" stroke-miterlimit="10" stroke-linecap="round" stroke-linejoin="round"/>
<path id="Vector_2" d="M101.739 120.579C112.343 120.579 120.939 111.982 120.939 101.379C120.939 90.7748 112.343 82.1787 101.739 82.1787C91.1353 82.1787 82.5391 90.7748 82.5391 101.379C82.5391 111.982 91.1353 120.579 101.739 120.579Z" stroke="#292D32" stroke-opacity="0.3" stroke-width="8" stroke-linecap="round" stroke-linejoin="round"/>
<path id="Vector_3" d="M124.431 124.184L118.431 118.184" stroke="#292D32" stroke-opacity="0.3" stroke-width="8" stroke-linecap="round" stroke-linejoin="round"/>
<path id="Vector_4" d="M88.5383 58.1816H88.5922" stroke="#292D32" stroke-opacity="0.3" stroke-width="8" stroke-linecap="round" stroke-linejoin="round"/>
<path id="Vector_5" d="M64.428 58.1816H64.4819" stroke="#292D32" stroke-opacity="0.3" stroke-width="8" stroke-linecap="round" stroke-linejoin="round"/>
<path id="Vector_6" d="M40.5061 58.1816H40.56" stroke="#292D32" stroke-opacity="0.3" stroke-width="8" stroke-linecap="round" stroke-linejoin="round"/>
</g>
</svg>
